<svg width="211" height="211" viewBox="0 0 211 211" fill="none" xmlns="http://www.w3.org/2000/svg">
<g clip-path="url(#clip0_2_301)">
<path d="M211 24.1776C211 10.8404 200.16 0 186.822 0H24.1776C10.8404 0 0 10.8404 0 24.1776V186.822C0 200.16 10.8404 211 24.1776 211H186.822C200.16 211 211 200.16 211 186.822V24.1776Z" fill="#4CAF50"/>
<path d="M101.104 140.666C99.4166 140.666 97.7279 140.025 96.4449 138.733L67.8709 110.16C65.2953 107.583 65.2953 103.407 67.8709 100.832C70.4482 98.2559 74.6241 98.2559 77.1997 100.832L101.113 124.745L144.808 81.0504C147.384 78.4747 151.56 78.4747 154.135 81.0504C156.711 83.626 156.711 87.8019 154.135 90.3792L105.782 138.733C104.479 140.025 102.792 140.666 101.104 140.666Z" fill="#FFD953"/>
<path d="M186.822 211H24.1776C10.8404 211 0 200.16 0 186.822V24.1776C0 10.8404 10.8404 0 24.1776 0H186.822C200.16 0 211 10.8404 211 24.1776V186.822C211 200.16 200.16 211 186.822 211ZM24.1776 13.1875C18.1199 13.1875 13.1875 18.1199 13.1875 24.1776V186.822C13.1875 192.88 18.1199 197.812 24.1776 197.812H186.822C192.88 197.812 197.812 192.88 197.812 186.822V24.1776C197.812 18.1199 192.88 13.1875 186.822 13.1875H24.1776Z" fill="#FFD953"/>
</g>
<defs>
<clipPath id="clip0_2_301">
<rect width="211" height="211" fill="white"/>
</clipPath>
</defs>
</svg>
