<svg width="29" height="29" viewBox="0 0 29 29" fill="none" xmlns="http://www.w3.org/2000/svg">
<path d="M14.5 0C6.53071 0 0 6.58735 0 14.5566C0 22.4797 6.47119 29 14.5 29C22.5189 29 29 22.4894 29 14.5566C29 6.58735 22.4693 0 14.5 0ZM17.0488 27.0459C16.2333 27.2158 15.3666 27.3008 14.5 27.3008C13.6334 27.3008 12.7667 27.2158 11.9512 27.0459V23.0698C11.9512 22.1182 12.2061 21.7783 12.5459 21.3194C12.7189 21.1216 12.8233 20.9442 13.5993 19.7733L12.291 19.5693C8.92643 19.0766 7.60113 17.3263 7.07433 15.9669C6.39464 14.1489 6.75152 11.8717 7.97504 10.4276C8.162 10.2066 8.31489 9.83268 8.17904 9.44195C7.92393 8.66026 7.95801 7.41992 8.12793 6.94401C9.02887 7.07278 9.95525 7.71817 10.7279 8.18457C11.0839 8.39233 11.2706 8.33746 11.4414 8.35449C12.0622 8.22528 13.0307 7.91265 14.517 7.91265C15.4346 7.91265 16.4032 8.0485 17.3548 8.32042C17.525 8.31644 17.7984 8.46114 18.2724 8.18457C19.0799 7.6925 19.9749 7.06924 20.8721 6.94401C21.042 7.41992 21.0761 8.66026 20.8212 9.44195C20.6851 9.83268 20.838 10.2066 21.0252 10.4276C22.2485 11.872 22.6054 14.1489 21.9257 15.9669C21.3989 17.3263 20.0736 19.0766 16.709 19.5693L15.4007 19.7733C16.2028 20.9836 16.2873 21.1287 16.4543 21.3194C16.7939 21.7783 17.0488 22.1182 17.0488 23.0698V27.0459ZM18.748 26.5532V23.0698C18.748 22.1011 18.5441 21.4555 18.2721 20.9796C20.855 20.2831 22.6903 18.7536 23.5059 16.5616C24.3725 14.2509 23.9818 11.498 22.5372 9.59483C22.7923 8.45649 22.7923 6.63824 22.1806 5.78863C21.9086 5.41493 21.5347 5.21094 21.059 5.21094C21.042 5.21094 21.042 5.21094 21.042 5.21094C19.7244 5.28218 18.6874 5.94572 17.5756 6.6212C16.5561 6.34928 15.5195 6.21343 14.483 6.21343C13.4296 6.21343 12.376 6.36632 11.4416 6.6212C10.2712 5.91541 9.24415 5.28041 7.89008 5.21094C7.46528 5.21094 7.09136 5.41493 6.81944 5.78863C6.2079 6.63824 6.2079 8.45649 6.46278 9.59483C5.01823 11.498 4.62749 14.2677 5.49414 16.5616C6.30968 18.7536 8.14497 20.2831 10.7279 20.9796C10.517 21.3484 10.3502 21.8243 10.2845 22.4684C9.76276 22.6483 9.3103 22.7069 8.88948 22.5832C8.44565 22.452 8.09983 22.1558 7.79937 21.6504C7.12455 20.5167 5.97514 19.5912 4.66644 19.7116L4.81578 21.4042C5.42179 21.3486 6.02493 21.9898 6.33822 22.5184C6.85506 23.3888 7.55135 23.9596 8.40826 24.2128C9.04436 24.4002 9.62581 24.3957 10.252 24.2621V26.5532C5.30718 24.8199 1.69922 20.0961 1.69922 14.5566C1.69922 7.52192 7.46528 1.69922 14.5 1.69922C21.5347 1.69922 27.3008 7.52192 27.3008 14.5566C27.3008 20.0961 23.6928 24.8199 18.748 26.5532Z" fill="black"/>
</svg>
