<svg width="28" height="28" viewBox="0 0 28 28" fill="none" xmlns="http://www.w3.org/2000/svg">
<path d="M8.75043 23.1328H4.9223V10.7734H8.75043V23.1328ZM9.13239 6.83572C9.13239 5.59821 8.12836 4.59375 6.89148 4.59375C5.6499 4.59375 4.64844 5.59821 4.64844 6.83572C4.64844 8.07367 5.6499 9.07812 6.89148 9.07812C8.12836 9.07812 9.13239 8.07367 9.13239 6.83572ZM23.0781 16.3332C23.0781 13.0154 22.3772 10.5547 18.5015 10.5547C16.6391 10.5547 15.389 11.4861 14.8786 12.4547H14.875V10.7734H11.1562V23.1328H14.875V16.9963C14.875 15.3892 15.2841 13.8323 17.2761 13.8323C19.241 13.8323 19.3047 15.6701 19.3047 17.0984V23.1328H23.0781V16.3332ZM28 24.7188V3.28125C28 1.47186 26.5281 0 24.7188 0H3.28125C1.47186 0 0 1.47186 0 3.28125V24.7188C0 26.5281 1.47186 28 3.28125 28H24.7188C26.5281 28 28 26.5281 28 24.7188ZM24.7188 2.1875C25.3218 2.1875 25.8125 2.67819 25.8125 3.28125V24.7188C25.8125 25.3218 25.3218 25.8125 24.7188 25.8125H3.28125C2.67819 25.8125 2.1875 25.3218 2.1875 24.7188V3.28125C2.1875 2.67819 2.67819 2.1875 3.28125 2.1875H24.7188Z" fill="black"/>
</svg>
